<?xml version="1.0" standalone="no"?>
<!DOCTYPE svg PUBLIC "-//W3C//DTD SVG 20010904//EN"
 "http://www.w3.org/TR/2001/REC-SVG-20010904/DTD/svg10.dtd">
<svg version="1.0" xmlns="http://www.w3.org/2000/svg"
 width="439.000000pt" height="439.000000pt" viewBox="0 0 439.000000 439.000000"
 preserveAspectRatio="xMidYMid meet">
<metadata>
Created by potrace 1.11, written by Peter Selinger 2001-2013
</metadata>
<g transform="translate(0.000000,439.000000) scale(0.100000,-0.100000)"
fill="#000000" stroke="none">
<path d="M1888 3052 l-288 -167 0 -341 0 -340 277 -160 c152 -87 284 -163 293
-167 13 -7 91 34 309 160 l291 168 0 341 0 340 -288 167 c-159 92 -292 167
-298 166 -5 0 -138 -76 -296 -167z"/>
<path d="M1430 1445 l0 -225 78 0 c82 0 108 12 131 57 7 13 11 81 11 173 l0
152 -34 34 c-33 33 -37 34 -110 34 l-76 0 0 -225z m128 143 c8 -8 12 -56 12
-149 0 -116 -2 -138 -16 -143 -43 -17 -44 -13 -44 149 0 143 1 155 18 155 10
0 23 -5 30 -12z"/>
<path d="M1700 1445 l0 -225 88 0 88 0 0 35 0 35 -48 0 -48 0 0 50 c0 45 2 50
23 50 20 0 22 5 22 40 0 35 -2 40 -22 40 -22 0 -23 4 -23 65 l0 65 45 0 c38 0
45 3 45 19 0 11 3 26 6 35 5 14 -6 16 -85 16 l-91 0 0 -225z"/>
<path d="M1930 1445 l0 -225 79 0 c129 0 151 32 151 225 0 193 -22 225 -151
225 l-79 0 0 -225z m134 139 c13 -12 16 -40 16 -139 0 -131 -8 -155 -51 -155
-18 0 -19 9 -19 155 0 146 1 155 19 155 11 0 27 -7 35 -16z"/>
<path d="M2254 1651 c-17 -10 -37 -33 -44 -50 -22 -53 1 -105 76 -178 50 -48
64 -68 64 -91 0 -18 -6 -32 -16 -36 -16 -6 -54 9 -54 22 0 4 -18 7 -40 7 -22
0 -40 -1 -40 -3 0 -1 6 -17 14 -35 18 -45 56 -67 111 -67 38 0 52 5 76 29 24
24 29 38 29 78 0 58 -16 84 -94 157 -44 41 -57 59 -54 77 4 28 46 39 62 17 6
-8 28 -14 49 -14 49 0 50 25 3 72 -40 40 -92 46 -142 15z"/>
<path d="M2480 1445 l0 -225 88 0 88 0 1 35 1 35 -49 0 -49 0 0 50 c0 45 2 50
23 50 19 0 22 5 23 41 1 38 0 41 -22 36 -23 -4 -24 -2 -24 64 l0 69 45 0 c29
0 45 4 45 13 0 6 3 22 6 35 6 22 5 22 -85 22 l-91 0 0 -225z"/>
<path d="M2758 1647 c-40 -33 -48 -65 -48 -203 0 -178 26 -224 124 -224 35 0
50 6 75 29 36 34 41 56 10 46 -14 -5 -25 -1 -34 11 -12 17 -14 17 -29 1 -21
-21 -30 -21 -50 -1 -13 12 -16 40 -16 139 0 99 3 127 16 139 20 20 29 20 49 0
12 -13 19 -14 28 -5 6 6 21 11 34 11 31 0 29 17 -8 51 -41 38 -110 41 -151 6z"/>
</g>
</svg>
